<svg xmlns="http://www.w3.org/2000/svg" viewBox="0 0 41.211 41.211">
  <defs>
    <style>
      .cls-1 {
        fill: #888;
      }
    </style>
  </defs>
  <path id="facebook" class="cls-1" d="M38.938,0H2.273A2.274,2.274,0,0,0,0,2.273V38.938a2.273,2.273,0,0,0,2.273,2.273H22.01V25.252H16.637V19.035H22.01V14.441c0-5.321,3.252-8.217,8-8.217a44.425,44.425,0,0,1,4.8.242V12.03h-3.3c-2.576,0-3.077,1.238-3.077,3.041V19.04H34.59l-.8,6.233H28.436V41.211h10.5a2.272,2.272,0,0,0,2.275-2.273V2.273A2.273,2.273,0,0,0,38.938,0"/>
</svg>
