<svg xmlns="http://www.w3.org/2000/svg" viewBox="0 0 43.501 42.424">
  <defs>
    <style>
      .cls-1 {
        fill: #888;
      }
    </style>
  </defs>
  <path id="github" class="cls-1" d="M21.75.3a21.751,21.751,0,0,0-6.879,42.386c1.088.2,1.486-.468,1.486-1.046,0-.517-.018-1.885-.027-3.7C10.281,39.252,9,35.022,9,35.022a5.765,5.765,0,0,0-2.42-3.181c-1.97-1.349.152-1.321.152-1.321a4.561,4.561,0,0,1,3.331,2.24c1.939,3.326,5.091,2.365,6.335,1.809a4.637,4.637,0,0,1,1.378-2.909c-4.83-.544-9.907-2.414-9.907-10.748a8.391,8.391,0,0,1,2.238-5.836,7.733,7.733,0,0,1,.19-5.757s1.822-.584,5.981,2.229a20.506,20.506,0,0,1,10.875,0c4.133-2.813,5.954-2.229,5.954-2.229a7.947,7.947,0,0,1,.218,5.757,8.426,8.426,0,0,1,2.229,5.836c0,8.356-5.084,10.2-9.924,10.73A5.207,5.207,0,0,1,27.1,35.665c0,2.911-.027,5.249-.027,5.956,0,.571.381,1.251,1.5,1.033A21.724,21.724,0,0,0,21.75.3" transform="translate(0 -0.297)"/>
</svg>
