<svg xmlns="http://www.w3.org/2000/svg" viewBox="0 0 48.701 75.163">
  <defs>
    <style>
      .cls-1 {
        fill: #fff;
      }

      .cls-2 {
        fill: #4989cc;
      }
    </style>
  </defs>
  <g id="Logo" transform="translate(0.002 -0.002)">
    <g id="Camada_1" data-name="Camada 1" transform="translate(-0.002 0.002)">
      <path id="Path_62" data-name="Path 62" class="cls-1" d="M19.523.025c-4.344-1.1-30.55,38.637-14.228,61.867,5.048,7.187,16.193,15.668,27.515,12.646,8.533-2.276,16.128-10.8,15.883-19.3-.218-7.489-6.478-13.12-11.591-17.718-5.2-4.673-6.9-4.151-10.109-7.284C16.1,19.622,22.406.761,19.523.025Z" transform="translate(0.002 -0.002)"/>
      <path id="Path_63" data-name="Path 63" class="cls-2" d="M34.446,170.1c-1.3-.256-7.366,13.5-4.648,28a33.9,33.9,0,0,0,2.339,7.64c4.506,10.07,13.461,16.232,14.543,15.3,1.117-.972-8-8.247-11.812-22.33C30.581,182.9,35.471,170.3,34.446,170.1Z" transform="translate(-25.607 -149.657)"/>
    </g>
  </g>
</svg>
