<svg xmlns="http://www.w3.org/2000/svg" xmlns:xlink="http://www.w3.org/1999/xlink" viewBox="0 0 456.333 242.989">
  <defs>
    <style>
      .cls-1, .cls-3 {
        fill: #4989cc;
      }

      .cls-1, .cls-2, .cls-7 {
        opacity: 0.1;
      }

      .cls-4 {
        fill: #3f3d56;
      }

      .cls-5 {
        fill: #65617d;
      }

      .cls-6 {
        opacity: 0.2;
      }

      .cls-8 {
        fill: #d4dfec;
      }

      .cls-9 {
        fill: #fbbebe;
      }

      .cls-10 {
        fill: url(#linear-gradient);
      }

      .cls-11 {
        fill: none;
      }
    </style>
    <linearGradient id="linear-gradient" x1="0.5" y1="1" x2="0.5" y2="-0.001" gradientUnits="objectBoundingBox">
      <stop offset="0" stop-color="gray" stop-opacity="0.251"/>
      <stop offset="0.54" stop-color="gray" stop-opacity="0.122"/>
      <stop offset="1" stop-color="gray" stop-opacity="0.102"/>
    </linearGradient>
  </defs>
  <g id="SVG_draw" data-name="SVG draw" transform="translate(-0.011 -0.035)">
    <path id="Path_64" data-name="Path 64" class="cls-1" d="M500.708,365.083q-.763,1.644-1.521,3.245-1.183,2.486-2.336,4.876c-.342.706-.684,1.4-1.017,2.092-3.769,7.7-7.288,14.519-10.277,20.123a32.081,32.081,0,0,1-27.964,16.97l-66.46.724h-.7l-5.7.061-4.873.053-14.944.162h-.6l-7.608.083h-.232l-46.892.509-41.857.439-4.869.053-30.239.329h-.035l-19.611.21h-.21l-62.011.671-18.551.2a38.575,38.575,0,0,1-11.688-1.675,37.857,37.857,0,0,1-17.131-10.853A87.685,87.685,0,0,1,85.7,373.2q-.846-2.407-1.578-4.876c-13.5-45.669,2.958-104.59,32.583-144.02q1.863-2.473,3.786-4.823l.031-.035c9.111-11.19,19.327-20.539,30.208-27.187,19.283-11.8,40.647-15.124,61.661-5.218a137.869,137.869,0,0,0,50.473,13.4c1.626.105,3.252.184,4.869.232,36.913,1.162,71.508-12.146,112.133-20.736,1.617-.342,3.239-.68,4.873-1,28.981-5.771,61.131-8.814,99.363-2.416a82.827,82.827,0,0,1,11.727,2.806q2.529.816,4.873,1.754c18.248,7.428,28.2,21.153,32.43,38.351q.6,2.394,1.039,4.872C541.675,265.672,519.715,324.351,500.708,365.083Z" transform="translate(-79.34 -172.91)"/>
    <g id="Group_3" data-name="Group 3" class="cls-2" transform="translate(4.829 6.063)">
      <path id="Path_65" data-name="Path 65" class="cls-3" d="M203.744,217V440.309l-18.713.2a39.257,39.257,0,0,1-11.79-1.674V244.168h.031C182.462,232.972,192.767,223.63,203.744,217Z" transform="translate(-136.551 -203.552)"/>
      <path id="Path_66" data-name="Path 66" class="cls-3" d="M581.748,283.9H164.6q1.861-2.493,3.783-4.863V279H580.71Q581.31,281.4,581.748,283.9Z" transform="translate(-131.731 -238.143)"/>
      <path id="Path_67" data-name="Path 67" class="cls-3" d="M1034.616,189.256v188.77h-1.534q-1.193,2.507-2.356,4.916c-.345.712-.69,1.41-1.026,2.109V187.47Q1032.251,188.292,1034.616,189.256Z" transform="translate(-618.383 -187.077)"/>
      <path id="Path_68" data-name="Path 68" class="cls-3" d="M770.006,186.58v234.2l-4.916.053V187.579C766.721,187.238,768.357,186.9,770.006,186.58Z" transform="translate(-469.41 -186.58)"/>
      <path id="Path_69" data-name="Path 69" class="cls-3" d="M503.022,235.852V449.419l-4.912.053V235.62C499.75,235.725,501.39,235.786,503.022,235.852Z" transform="translate(-319.407 -213.94)"/>
      <path id="Path_70" data-name="Path 70" class="cls-3" d="M504.949,618.52q-1.182,2.507-2.334,4.916H91.826q-.845-2.427-1.576-4.916Z" transform="translate(-90.25 -429.188)"/>
    </g>
    <rect id="Rectangle_20" data-name="Rectangle 20" class="cls-4" width="8.4" height="25.491" transform="translate(92.723 116.475)"/>
    <rect id="Rectangle_21" data-name="Rectangle 21" class="cls-4" width="8.4" height="26.967" transform="translate(316.774 115.153)"/>
    <path id="Path_71" data-name="Path 71" class="cls-5" d="M440.758,517.749V523.5l-67.162.619-.716.013-25.526.234-.61.009-7.759.066h-.23l-47.294.438-77.635.721h-.066l-19.739.186-.212,0-87.71.8V519.96l20.623-12.378,41.379-.345.884,0,.292,0,.884-.013,19.867-.164.889,0,.283,0,.884,0,6.37-.053.168,0,15.716-.133h.128L337.1,505.813l3-.022h.3l2.29-.022,16.644-.137.884-.013.818-.009h.424l5.177-.04,1.026-.013,1.375-.009,4.31-.04,6.839-.057.884-.009,1.538-.009h.287l33.028-.283Z" transform="translate(-59.189 -283.799)"/>
    <path id="Path_72" data-name="Path 72" class="cls-6" d="M440.758,517.749V523.5l-67.162.619-.716.013-25.526.234-.61.009-7.759.066h-.23l-47.294.438-77.635.721h-.066l-19.739.186-.212,0-87.71.8V519.96l20.623-12.378,41.379-.345.884,0,.292,0,.884-.013,19.867-.164.889,0,.283,0,.884,0,6.37-.053.168,0,15.716-.133h.128L337.1,505.813l3-.022h.3l2.29-.022,16.644-.137.884-.013.818-.009h.424l5.177-.04,1.026-.013,1.375-.009,4.31-.04,6.839-.057.884-.009,1.538-.009h.287l33.028-.283Z" transform="translate(-59.189 -283.799)"/>
    <path id="Path_73" data-name="Path 73" class="cls-4" d="M349.123,656.57V667.4a2.71,2.71,0,0,1-1.547,2.449,2.653,2.653,0,0,1-1.105.265l-15.429.327a2.653,2.653,0,0,1-1.194-.252,2.706,2.706,0,0,1-1.578-2.462V656.57Z" transform="translate(-219.217 -444.72)"/>
    <path id="Path_74" data-name="Path 74" class="cls-7" d="M349.123,656.57V667.4a2.71,2.71,0,0,1-1.547,2.449,2.653,2.653,0,0,1-1.105.265l-15.429.327a2.653,2.653,0,0,1-1.194-.252,2.706,2.706,0,0,1-1.578-2.462V656.57Z" transform="translate(-219.217 -444.72)"/>
    <path id="Path_75" data-name="Path 75" class="cls-4" d="M351.123,656.57V667.4a2.71,2.71,0,0,1-1.547,2.449,2.653,2.653,0,0,1-1.105.265l-15.429.327a2.653,2.653,0,0,1-1.194-.252,2.706,2.706,0,0,1-1.578-2.462V656.57Z" transform="translate(-220.341 -444.72)"/>
    <rect id="Rectangle_22" data-name="Rectangle 22" class="cls-4" width="20.853" height="13.926" transform="translate(298.295 211.85)"/>
    <rect id="Rectangle_23" data-name="Rectangle 23" class="cls-7" width="20.853" height="13.926" transform="translate(298.295 211.85)"/>
    <rect id="Rectangle_24" data-name="Rectangle 24" class="cls-4" width="20.853" height="13.926" transform="translate(297.419 211.85)"/>
    <path id="Path_76" data-name="Path 76" class="cls-7" d="M220,265.82v2.533l-8.4-.217V265.82Z" transform="translate(-118.877 -149.249)"/>
    <path id="Path_77" data-name="Path 77" class="cls-5" d="M313.56,267.652l-10.093,72.5a1.9,1.9,0,0,1-1.932,1.64l-80.813-2.1-1.534-.04a1.9,1.9,0,0,1-1.839-2.153l11.331-75.9a1.9,1.9,0,0,1,2.007-1.6l81.1,5.491a1.9,1.9,0,0,1,1.768,2.157Z" transform="translate(-156.322 -221.948)"/>
    <path id="Path_78" data-name="Path 78" class="cls-8" d="M165.145,99.16l-8.545,66.9,74.27,2.356L240,103.873Z" transform="translate(-88.098 -55.799)"/>
    <rect id="Rectangle_25" data-name="Rectangle 25" class="cls-5" width="90.482" height="76.627" rx="5.33" transform="translate(168.193 42.317)"/>
    <rect id="Rectangle_26" data-name="Rectangle 26" class="cls-8" width="82.228" height="63.806" transform="translate(172.459 47.455)"/>
    <path id="Path_79" data-name="Path 79" class="cls-7" d="M731.329,262.82V264.5l-8.4.172V262.82Z" transform="translate(-406.156 -147.562)"/>
    <path id="Path_80" data-name="Path 80" class="cls-5" d="M790.154,334.541a1.362,1.362,0,0,1-1.326,1.45L706.069,337.7a1.362,1.362,0,0,1-1.384-1.233l-7.113-73.952a1.362,1.362,0,0,1,1.291-1.49l82.131-4.085.884-.044a1.357,1.357,0,0,1,1.424,1.238Z" transform="translate(-427.224 -220.197)"/>
    <path id="Path_81" data-name="Path 81" class="cls-8" d="M628.93,98.507l75.008-3.687,6.335,67.2-74.416,1.768Z" transform="translate(-353.818 -53.355)"/>
    <path id="Path_82" data-name="Path 82" class="cls-7" d="M895.44,334.541a1.362,1.362,0,0,1-1.326,1.45l-7.834-79.049.884-.044a1.357,1.357,0,0,1,1.424,1.238Z" transform="translate(-532.701 -220.192)"/>
    <path id="Path_83" data-name="Path 83" class="cls-7" d="M230.7,259.993l-9.978,79.7-1.534-.04a1.9,1.9,0,0,1-1.839-2.153l11.331-75.9A1.9,1.9,0,0,1,230.7,259.993Z" transform="translate(-156.322 -221.936)"/>
    <rect id="Rectangle_27" data-name="Rectangle 27" class="cls-7" width="8.4" height="7.551" transform="translate(92.723 134.345)"/>
    <path id="Path_84" data-name="Path 84" class="cls-7" d="M271.783,483.65v2.2l-20.853.557V483.65Z" transform="translate(-141.001 -271.804)"/>
    <path id="Path_85" data-name="Path 85" class="cls-5" d="M349.386,483.066v74.359a1.768,1.768,0,0,1-1.7,1.746l-84.726,2.255h-.022a1.768,1.768,0,0,1-1.746-1.746V483.066a1.768,1.768,0,0,1,1.746-1.746h84.7A1.768,1.768,0,0,1,349.386,483.066Z" transform="translate(-181.655 -346.945)"/>
    <path id="Path_86" data-name="Path 86" class="cls-7" d="M262.958,481.32v80.106h-.022a1.768,1.768,0,0,1-1.746-1.746V483.066a1.768,1.768,0,0,1,1.746-1.746Z" transform="translate(-180.791 -346.945)"/>
    <path id="Path_87" data-name="Path 87" class="cls-8" d="M194.6,319.15h78.47v65.539l-78.47,1.768Z" transform="translate(-109.465 -180.027)"/>
    <rect id="Rectangle_28" data-name="Rectangle 28" class="cls-7" width="8.4" height="7.701" transform="translate(316.774 134.344)"/>
    <path id="Path_88" data-name="Path 88" class="cls-7" d="M699.783,483.65v2.834l-20.853-.557V483.65Z" transform="translate(-381.511 -271.804)"/>
    <path id="Path_89" data-name="Path 89" class="cls-5" d="M756.364,483.066V559.68a1.768,1.768,0,0,1-1.768,1.746h0l-84.743-2.255a1.768,1.768,0,0,1-1.7-1.746V483.066a1.768,1.768,0,0,1,1.746-1.746h84.7a1.768,1.768,0,0,1,1.764,1.746Z" transform="translate(-410.638 -346.945)"/>
    <path id="Path_90" data-name="Path 90" class="cls-7" d="M865.458,483.066V559.68a1.768,1.768,0,0,1-1.768,1.746h0V481.32h0a1.768,1.768,0,0,1,1.768,1.746Z" transform="translate(-519.959 -346.945)"/>
    <path id="Path_91" data-name="Path 91" class="cls-8" d="M676.57,319.15H598.1v65.539l78.47,1.768Z" transform="translate(-336.453 -180.027)"/>
    <path id="Path_92" data-name="Path 92" class="cls-5" d="M551.886,483.066v74.359a1.768,1.768,0,0,1-1.7,1.746l-84.726,2.255h0a1.768,1.768,0,0,1-1.768-1.746V483.066a1.768,1.768,0,0,1,1.746-1.746h84.7A1.768,1.768,0,0,1,551.886,483.066Z" transform="translate(-295.595 -346.945)"/>
    <path id="Path_93" data-name="Path 93" class="cls-8" d="M397.1,319.15h78.47v65.539l-78.47,1.768Z" transform="translate(-223.381 -180.027)"/>
    <path id="Path_94" data-name="Path 94" class="cls-7" d="M440.758,533.65V539.4l-67.162.619-.716.013-25.526.234-.61.009-7.759.066h-.23l-47.294.438-77.635.721h-.066l-19.739.186-.212,0-87.71.8V535.86l89.527-.588h.212l18.121-.124h.084l125.145-.827h.128l.075,0h.208l2.118-.013h.645l32.931-.221,1.945-.009.433,0Z" transform="translate(-59.189 -299.7)"/>
    <circle id="Ellipse_2" data-name="Ellipse 2" class="cls-9" cx="22.692" cy="22.692" r="22.692" transform="translate(190.866 96.673)"/>
    <path id="Path_95" data-name="Path 95" class="cls-10" d="M383.74,514.7a.548.548,0,0,1,.044-.155c.442-1.587,1.229-4.271,1.817-6.415.075-.265.146-.526.212-.774.65-2.418,1.914-8.081,2.617-11.614.248-1.242.442-2.21.482-2.7a73.571,73.571,0,0,1,2.927-7.617c1.057-2.582,2.21-5.4,3.055-7.781a27.13,27.13,0,0,0,1.3-4.355,2.254,2.254,0,0,0,0-.942,6.5,6.5,0,0,1-.212-1.547h0c-.1-2.741.716-7.073,1.981-8.89,1.547-2.21,2.653-10.46,2.653-10.46s2.29.332,2.652-1.561a2.717,2.717,0,0,0,.044-.619,3.275,3.275,0,0,0-.04-.491c-.393-2.759,6.508-5.694,10.389-6.326a8.7,8.7,0,0,1,1.326-.124,12.042,12.042,0,0,0,2.763-.637q.619-.19,1.326-.442c1.627-.548,3.572-1.273,5.637-2.069,7.763-3.011,17.162-7.073,17.162-7.073.066-.314.141-.615.225-.911a12.25,12.25,0,0,1,7.228-8.369h0v-.884c0-1.525-.066-3.095-.133-4.66,0-.305-.027-.61-.044-.915v-.5c0-.309-.031-.619-.049-.924l-.08-.062a7.252,7.252,0,0,1-1.724-1.857,6.748,6.748,0,0,1-.628-1.326,40.519,40.519,0,0,1-1.052-4.752l-.08-.327a37.13,37.13,0,0,0-1.768-4.677c-.977-2.4-1.729-4.863-2.476-7.361q-.681-2.268-1.375-4.545l-.7-2.316c-.133-.442-.265-.884-.367-1.326h0a5.859,5.859,0,0,1-.115-.619,4.421,4.421,0,0,1,.106-2.038,14.177,14.177,0,0,1,.584-1.326,3.487,3.487,0,0,0,.221-.61h0a1.329,1.329,0,0,0,.035-.141,2.506,2.506,0,0,0,.049-.477,8.16,8.16,0,0,0-.23-1.72.031.031,0,0,1,0-.022,1.106,1.106,0,0,0-.022-.119,11.273,11.273,0,0,1-.159-1.326,12.578,12.578,0,0,1,1.534-6.883l.084-.159a11.142,11.142,0,0,1,.813-1.229h0a6.215,6.215,0,0,1,.442-.539,1.765,1.765,0,0,1-2.454-.637,1.681,1.681,0,0,1-.1-.2c-.022-.053-.04-.111-.057-.168a3.612,3.612,0,0,1,.937-3.117,8.174,8.174,0,0,1,2.538-2.078h0a1.7,1.7,0,0,1,.177-.093,7.57,7.57,0,0,1,1.167-.469h0a6.673,6.673,0,0,1,.721-.195l-1.64-.15-.663-.062a6.406,6.406,0,0,1,5.747-4.823h.477a5.177,5.177,0,0,1,.694.057,1.963,1.963,0,0,1-1.172-1.914,6.37,6.37,0,0,0,4.063,1.353h.168a13.281,13.281,0,0,1-.15-1.446h0a14.659,14.659,0,0,1,0-1.972,3.731,3.731,0,0,0,3,1l-.92-1.282a4.2,4.2,0,0,0,2.9.906l.212-.022a3.093,3.093,0,0,0,.526-.1h.04c-.084-.106-.159-.217-.234-.332l-.027-.053a4.277,4.277,0,0,1-.442-.924,2.907,2.907,0,0,1-.106-.385h0a3.868,3.868,0,0,1,.2-2.409c1.428,1.194,2.993,2.825,4.863,1.592s1.932-3.5,4.863-3.267a4.509,4.509,0,0,1,3.718,2.706,2.984,2.984,0,0,1,3.391-.774,3.028,3.028,0,0,1,1.715,3.046,6.109,6.109,0,0,1,3.691-.146c1.167.46,1.919,1.95,1.255,2.944a.636.636,0,0,1-.062.088c-.544.7-1.746,1.087-1.618,1.972l.186.133.575.416q3.382,2.44,6.587,5.128c1.1.92,2.263,2.025,2.339,3.462a3.821,3.821,0,0,1-.106,1.048h0c-.071.345-.168.69-.243,1.034a8.624,8.624,0,0,0-.15,2.675h0c.031.261.071.517.119.778.676,3.417,3.408,6.238,3.678,9.726v.248a7.857,7.857,0,0,1-.031,1.118,23.862,23.862,0,0,1-1.981,6.189c-.049.124-.1.248-.141.371a61.591,61.591,0,0,0-3.095,12.449,44.291,44.291,0,0,1-.884,4.461,11.817,11.817,0,0,1-2.25,4.611,7.172,7.172,0,0,1-1.485,1.326,8.252,8.252,0,0,1-1.172.623v.027c.049.27.088.539.137.809.027.141.049.283.075.442h0a.059.059,0,0,0,0,.027c.371,2.091.8,4.138,1.242,6.083l.225.968c5.57,2.012,6.229,6.132,6.269,7.71a4.268,4.268,0,0,1,0,.632s8.4.221,11.715,2.653A8.99,8.99,0,0,0,503.209,434a36.692,36.692,0,0,0,4.089,1.278c.712.186,1.454.367,2.21.544,1.326.3,2.732.6,4.089.884,3.621.729,7.029,1.326,8.758,1.768,4.125,1.043,13.559,10.088,13.559,10.088s1.105,9.125,2.21,10.455,3.095,6.008,3.095,6.008l7.312,13,3.095,5.469h1.989a3.382,3.382,0,0,1,1.419.928c.526.469,1.11,1.052,1.622,1.583l.849.906.531.588s3.214.08,4.085,2.622c2.617-.075,5.831.1,8.081,1.105a6.247,6.247,0,0,1,.884.477,3.838,3.838,0,0,1,1.826,2.5,3.687,3.687,0,0,1,.08.637v.752c-.159,3.347-2.339,6.132-4.341,8.006l.141.252s-.066.159-.195.442c-.035.084-.08.177-.128.283h0c-.261.557-.676,1.393-1.22,2.37a27.989,27.989,0,0,1-4.231,5.822l-.128.133-25.526.234-.075-.089-4.951-5.906-2.462-2.935-.075-.093-.071.7-.239,2.343-.575,5.663-.031.283v.075l-.066.654.049-.654h-.128l-47.3.442-77.639.858v.371h-.062v-.371l-19.783.212Z" transform="translate(-251.149 -272.555)"/>
    <path id="Path_96" data-name="Path 96" class="cls-9" d="M567.371,488.684s-43.987,5.305-39.788,0c1.521-1.919,1.941-7.6,1.857-14.08-.027-1.967-.1-4.005-.2-6.034-.486-9.726-1.658-19.231-1.658-19.231s38.461-18.125,34.041-3.758c-1.768,5.8-1.189,13.957.155,21.609.393,2.233.849,4.421,1.326,6.5A152.4,152.4,0,0,0,567.371,488.684Z" transform="translate(-331.143 -323.138)"/>
    <path id="Path_97" data-name="Path 97" class="cls-7" d="M567.371,529.82s-43.987,5.3-39.788,0c1.521-1.919,1.941-7.6,1.857-14.08,6.706-2.865,15.239-.729,15.239-.729,8.983-1.791,14.744-1.441,18.426-.186A152.408,152.408,0,0,0,567.371,529.82Z" transform="translate(-331.143 -364.386)"/>
    <path id="Path_98" data-name="Path 98" class="cls-3" d="M404.024,608.445v-.371l77.639-.844,47.3-.442h.133l-.049.654.066-.654h.084v-.075l.606-5.946.23-2.25.071-.7.062-.588,2.732-9.111,2.732-9.1,2.3-7.661,3.51-11.706a39.281,39.281,0,0,0-3.095-5.968c-1.105-1.326-2.21-10.389-2.21-10.389s-9.434-8.988-13.559-10.022c-1.729-.442-5.141-1.03-8.766-1.768-1.357-.274-2.75-.566-4.089-.884-.756-.172-1.5-.354-2.21-.535a38.826,38.826,0,0,1-4.089-1.264,9.148,9.148,0,0,1-1.989-1.012c-3.249-2.383-11.393-2.653-11.706-2.653h0a.181.181,0,0,1,0-.031v-.04a4.535,4.535,0,0,0,0-.557,3.547,3.547,0,0,0-.04-.619.557.557,0,0,0-.031-.221c-.022-.159-.049-.327-.088-.5a2.2,2.2,0,0,0-.053-.234,7.611,7.611,0,0,0-.553-1.543c-.031-.071-.071-.146-.106-.217a8.07,8.07,0,0,0-.752-1.163c-.057-.075-.119-.155-.186-.23a8.655,8.655,0,0,0-1.2-1.167c-.119-.093-.243-.19-.371-.279a2.065,2.065,0,0,0-.225-.159l-.393-.256-.367-.212c-.323-.177-.663-.349-1.035-.513-.115-.053-.239-.1-.362-.15s-.318-.124-.482-.186h-.027l-.332-.133c-.252-.084-.508-.159-.778-.234l-.411-.106-.442-.1-.442-.093c-.442-.089-.915-.168-1.41-.23l-.5-.062-.517-.053-.535-.044-.76-.044-.884-.031a55.127,55.127,0,0,0-11.605,1.234,31.951,31.951,0,0,0-8.067-.744h-.385l-.442.027h-.283l-.57.053a4.235,4.235,0,0,0-.575.066c-.19.027-.389.049-.579.08l-.292.049c-.287.049-.579.1-.884.164q-.146.026-.292.066c-.385.084-.769.186-1.149.3-.19.053-.38.115-.57.181-.1.027-.19.062-.283.1l-.283.1-.279.111-.332.133c-.168.071-.332.146-.5.225-.093.04-.186.084-.274.133s-.181.088-.265.137a12.267,12.267,0,0,0-2.745,1.936l-.225.217-.221.225c-.075.075-.146.155-.217.234a10.539,10.539,0,0,0-.8.995c-.071.093-.137.186-.2.283a11.8,11.8,0,0,0-.76,1.291c-.057.106-.111.217-.164.323a14.453,14.453,0,0,0-.884,2.321q-.124.442-.225.884s-9.359,4.129-17.122,7.117c-2.065.8-4.01,1.516-5.637,2.06-.473.159-.915.305-1.326.442a11.8,11.8,0,0,1-2.763.637,8.689,8.689,0,0,0-1.326.124c-3.568.579-9.682,3.095-10.349,5.619a1.631,1.631,0,0,0-.044.619v.049c.442,3.095-2.652,2.653-2.652,2.653s-1.105,8.179-2.653,10.389c-1.118,1.591-1.883,5.141-1.981,7.82h0a8.67,8.67,0,0,0,.195,2.489v.062c.177.592-.248,2.21-.968,4.284-.783,2.277-1.923,5.106-3.019,7.776a90.576,90.576,0,0,0-3.307,8.5c-.04.358-.155,1-.314,1.826-.645,3.369-2.078,9.783-2.785,12.378-.526,1.936-1.291,4.589-1.817,6.41a.62.62,0,0,1-.044.155l19.819-.195v.371h.062Z" transform="translate(-251.182 -366.149)"/>
    <path id="Path_99" data-name="Path 99" class="cls-7" d="M445.44,607.57s25.2,13.042,34.262,11.494Z" transform="translate(-285.106 -417.031)"/>
    <path id="Path_100" data-name="Path 100" class="cls-7" d="M561.44,595.57s24.536,7.958,32.714,9.063S561.44,595.57,561.44,595.57Z" transform="translate(-350.303 -410.274)"/>
    <path id="Path_101" data-name="Path 101" class="cls-7" d="M563.191,526.56c-12.82,2.361-36.958,1.852-47.391,1.494,3.824-13.7,22.471-9.045,22.471-9.045C561.352,514.4,563.121,523.961,563.191,526.56Z" transform="translate(-324.711 -366.588)"/>
    <path id="Path_102" data-name="Path 102" class="cls-3" d="M563.191,524.56c-12.82,2.361-36.958,1.852-47.391,1.494,3.824-13.7,22.471-9.045,22.471-9.045C561.352,512.4,563.121,521.961,563.191,524.56Z" transform="translate(-324.711 -365.464)"/>
    <path id="Path_103" data-name="Path 103" class="cls-9" d="M776.94,671.823s15.1-2.321,15.4,4.31-7.7,11.264-7.7,11.264Z" transform="translate(-471.308 -453.01)"/>
    <path id="Path_104" data-name="Path 104" class="cls-7" d="M562.1,467.189a20.79,20.79,0,0,1-1.989.769c-4.766,1.645-9.571,3.3-14.589,3.9s-10.283.071-14.66-2.431a12.724,12.724,0,0,1-1.326-.862c-.486-9.726-1.658-19.231-1.658-19.231s38.461-18.125,34.041-3.758C560.161,451.385,560.758,459.537,562.1,467.189Z" transform="translate(-331.443 -323.03)"/>
    <path id="Path_105" data-name="Path 105" class="cls-4" d="M527.638,357.594a4.187,4.187,0,0,1-3.678-.774l.92,1.278a3.744,3.744,0,0,1-3-.995,15.065,15.065,0,0,0,.141,3.426A6.419,6.419,0,0,1,517.8,359.2a1.954,1.954,0,0,0,1.167,1.905,6.339,6.339,0,0,0-6.9,4.735l2.308.212a8.165,8.165,0,0,0-4.615,2.816,3.576,3.576,0,0,0-.937,3.095c.31,1.079,1.8,1.768,2.617,1a12.352,12.352,0,0,0-2.7,10.075,6.4,6.4,0,0,1,.2,2.325,19.736,19.736,0,0,1-.836,2.073,6.55,6.55,0,0,0,.371,3.979l2.073,6.817c.752,2.462,1.5,4.929,2.48,7.312a36.286,36.286,0,0,1,1.768,4.646c.557,2.14.579,4.483,1.768,6.353a8.811,8.811,0,0,0,3.174,2.8c4.372,2.5,9.655,3.033,14.659,2.431s9.805-2.259,14.567-3.9A13.7,13.7,0,0,0,552,416.546c3.293-2.157,4.027-6.569,4.642-10.455a59.369,59.369,0,0,1,3.223-12.732c.964-2.427,2.21-4.889,2-7.489-.27-3.453-3-6.251-3.678-9.646a8.4,8.4,0,0,1,.031-3.435,7.806,7.806,0,0,0,.349-2.078c-.075-1.423-1.242-2.52-2.339-3.435q-3.568-2.98-7.365-5.632c-.128-.884,1.074-1.264,1.618-1.963.769-.986-.026-2.551-1.194-3.011a6.109,6.109,0,0,0-3.691.146,2.913,2.913,0,0,0-5.106-2.259,4.51,4.51,0,0,0-3.722-2.688c-2.931-.23-2.988,2.012-4.863,3.245s-3.422-.393-4.863-1.578A4.1,4.1,0,0,0,527.638,357.594Z" transform="translate(-320.311 -273.625)"/>
    <path id="Path_106" data-name="Path 106" class="cls-3" d="M747.968,649.463s-.393.937-1.118,2.294a30.5,30.5,0,0,1-3.979,5.822l-.119.128h-.716l-25.526.234h-.61l-.075-.088-4.951-5.875-1.866-2.215-.075-.093-.159-.186-.088-.106-.115-.137-3.63-4.306,1.326-5.526,2.259-9.31.057-.225.442-1.768.314-1.326,1.052-4.324L714,607.58l6.41,3.316,6.759,11.936,3.63,6.41h1.989c.376,0,1.238.725,2.1,1.561.309.3.619.61.884.884.787.813,1.41,1.512,1.41,1.512s3.223.071,4.089,2.608a3.1,3.1,0,0,1,.111.376,17.82,17.82,0,0,0,1.118,2.9c.57,1.242,1.286,2.653,2.012,4.063,1.348,2.586,2.719,5.049,3.223,5.942l.062.11Z" transform="translate(-431.017 -417.387)"/>
    <path id="Path_107" data-name="Path 107" class="cls-7" d="M556.025,650.677l-.044.632v.044l-.075,1.017-.588,8.183-.712,9.859-.2,2.776-.442,5.942v.075l-47.3.442-77.626.84v.371h-.062v-.5l.2-6.348.38-12.4.327-10.517.031-1.048a4.655,4.655,0,0,1,5.049-4.5c2.087.177,4.8.393,8.037.623l1.326.1c18.713,1.3,53.3,2.98,88.2.884.734-.04,1.472-.084,2.21-.137,5.411-.34,10.818-.778,16.172-1.326a4.655,4.655,0,0,1,5.128,4.965Z" transform="translate(-276.253 -438.561)"/>
    <path id="Path_108" data-name="Path 108" class="cls-4" d="M429.08,683.107v-.371l77.639-.844,47.3-.442h.133v-.075l.442-5.942.19-2.652.725-10,.57-7.913v-.195a4.7,4.7,0,0,0-.049-1.092.134.134,0,0,0,0-.044,4.593,4.593,0,0,0-.884-2.051,4.66,4.66,0,0,0-4.164-1.768c-5.354.548-10.76.986-16.171,1.326-.738.053-1.477.1-2.21.137-34.9,2.073-69.482.393-88.2-.884l-1.326-.1c-3.241-.23-5.95-.442-8.037-.623a4.66,4.66,0,0,0-4.969,3.771,4.857,4.857,0,0,0-.08.725l-.3,9.8-.411,12.409-.195,6.348v.5Z" transform="translate(-276.315 -440.81)"/>
    <path id="Path_109" data-name="Path 109" class="cls-7" d="M556.236,660.218,555.692,667l-.809,10.1-.2,2.529-.442,5.663-.027.283v.075h0l-.066.654.049-.654h-.128l-47.3.442-77.652.84v-.124l.217-6.348.442-12.4.283-8.245a2.812,2.812,0,0,1,1.353-2.321,2.763,2.763,0,0,1,1.671-.4c.928.075,2.069.164,3.4.261,2.162.159,4.828.345,7.931.539,5.747.363,12.957.752,21.22,1.07,22.988.884,54.023,1.18,83.5-1.4,1.326-.115,2.7-.243,4.036-.371a2.768,2.768,0,0,1,1.538.292,2.28,2.28,0,0,1,.38.239,2.714,2.714,0,0,1,.884,1.088,1.579,1.579,0,0,1,.11.27A2.778,2.778,0,0,1,556.236,660.218Z" transform="translate(-276.332 -445.004)"/>
    <path id="Path_110" data-name="Path 110" class="cls-7" d="M351.123,677.87v1.41a2.71,2.71,0,0,1-1.547,2.449l-17.728.34a2.706,2.706,0,0,1-1.578-2.462v-1.326Z" transform="translate(-220.341 -456.603)"/>
    <path id="Path_111" data-name="Path 111" class="cls-4" d="M269.449,510.733l-23.1.442v-3.833l23.1-.442Z" transform="translate(-138.433 -284.776)"/>
    <path id="Path_112" data-name="Path 112" class="cls-7" d="M269.449,510.733l-23.1.442v-3.833l23.1-.442Z" transform="translate(-138.433 -284.776)"/>
    <path id="Path_113" data-name="Path 113" class="cls-4" d="M271.449,510.733l-23.1.442v-3.833l23.1-.442Z" transform="translate(-139.557 -284.776)"/>
    <g id="Group_4" data-name="Group 4" class="cls-2" transform="translate(187.787 80.587)">
      <path id="Path_114" data-name="Path 114" d="M551.812,359.139a4.31,4.31,0,0,1-.836-1.919,4.194,4.194,0,0,0,.186,2.034A3.985,3.985,0,0,0,551.812,359.139Z" transform="translate(-532.093 -357.22)"/>
      <path id="Path_115" data-name="Path 115" d="M540.024,366.136a15.551,15.551,0,0,1-.164-1.636v1.64Z" transform="translate(-525.919 -361.282)"/>
      <path id="Path_116" data-name="Path 116" d="M621.692,396.884a8.093,8.093,0,0,1,.159-1.172,7.96,7.96,0,0,0,.354-2.073,2.725,2.725,0,0,0-.071-.469c-.075.407-.194.813-.283,1.216a8.464,8.464,0,0,0-.159,2.5Z" transform="translate(-571.557 -377.277)"/>
      <path id="Path_117" data-name="Path 117" d="M600.918,367.841l.482.349a8.711,8.711,0,0,0,1.136-.981,1.622,1.622,0,0,0,.168-1.609,1.323,1.323,0,0,1-.168.283C601.992,366.581,600.79,366.966,600.918,367.841Z" transform="translate(-559.978 -361.895)"/>
      <path id="Path_118" data-name="Path 118" d="M518.275,380.29a5.437,5.437,0,0,0-.385,1.008,8.028,8.028,0,0,1,2.21-.836Z" transform="translate(-513.661 -370.091)"/>
      <path id="Path_119" data-name="Path 119" d="M531.5,368.724a6.551,6.551,0,0,1-.831-.544,1.882,1.882,0,0,0,.04.522A5.247,5.247,0,0,1,531.5,368.724Z" transform="translate(-520.786 -363.335)"/>
      <path id="Path_120" data-name="Path 120" d="M562.257,428.33a22.765,22.765,0,0,1-1.989,6.242,59.338,59.338,0,0,0-3.223,12.736c-.615,3.886-1.326,8.3-4.642,10.451a13.26,13.26,0,0,1-3.019,1.326c-4.766,1.649-9.571,3.3-14.589,3.9s-10.283.075-14.66-2.427a8.842,8.842,0,0,1-3.174-2.8c-1.18-1.87-1.2-4.213-1.768-6.353a36.358,36.358,0,0,0-1.768-4.651c-.977-2.378-1.729-4.863-2.476-7.308q-1.039-3.408-2.073-6.821a12.736,12.736,0,0,1-.5-2.1,7.924,7.924,0,0,0,.5,3.426q1.034,3.417,2.073,6.821c.747,2.462,1.5,4.929,2.476,7.308a36.356,36.356,0,0,1,1.768,4.651c.557,2.14.579,4.483,1.768,6.353a8.842,8.842,0,0,0,3.174,2.8c4.377,2.5,9.655,3.028,14.66,2.427s9.805-2.255,14.589-3.9a13.262,13.262,0,0,0,3.02-1.326c3.294-2.153,4.027-6.565,4.642-10.451a59.338,59.338,0,0,1,3.223-12.737c.964-2.423,2.21-4.885,2-7.489C562.266,428.383,562.257,428.356,562.257,428.33Z" transform="translate(-508.324 -396.893)"/>
      <path id="Path_121" data-name="Path 121" d="M510.133,419.617v-.049a6.19,6.19,0,0,0-.2-2.321,11.769,11.769,0,0,1-.172-1.468,12.09,12.09,0,0,0,.172,2.794C510,418.919,510.08,419.268,510.133,419.617Z" transform="translate(-509.114 -389.891)"/>
      <path id="Path_122" data-name="Path 122" d="M511.724,396.7a12.27,12.27,0,0,1,1.154-1.622c-.809.774-2.3.084-2.617-.99a2.578,2.578,0,0,0,0,1.326,1.941,1.941,0,0,0,1.463,1.286Z" transform="translate(-509.356 -377.79)"/>
    </g>
    <path id="Path_123" data-name="Path 123" class="cls-7" d="M762.654,656.57s1.4,5.084,0,9.5S762.654,656.57,762.654,656.57Z" transform="translate(-462.847 -444.72)"/>
    <path id="Path_124" data-name="Path 124" class="cls-7" d="M775.447,668.3s.588,6.454-.738,7.6S775.447,668.3,775.447,668.3Z" transform="translate(-469.72 -451.264)"/>
    <line id="Line_6" data-name="Line 6" class="cls-11" y1="0.442" x2="44.92" transform="translate(87.129 149.922)"/>
    <line id="Line_7" data-name="Line 7" class="cls-11" y1="0.438" x2="44.92" transform="translate(87.129 155.394)"/>
    <line id="Line_8" data-name="Line 8" class="cls-11" y1="0.442" x2="44.92" transform="translate(87.129 160.862)"/>
  </g>
</svg>
