<svg xmlns="http://www.w3.org/2000/svg" viewBox="0 0 50.016 40.651">
  <defs>
    <style>
      .cls-1 {
        fill: #888;
      }
    </style>
  </defs>
  <path id="twitter" class="cls-1" d="M49.918,7.087A20.84,20.84,0,0,1,44.031,8.7a10.332,10.332,0,0,0,4.508-5.674,21.179,21.179,0,0,1-6.516,2.467,10.25,10.25,0,0,0-17.736,7,10.492,10.492,0,0,0,.265,2.342A29.039,29.039,0,0,1,3.418,4.153,10.048,10.048,0,0,0,2.03,9.31a10.254,10.254,0,0,0,4.56,8.536,10.22,10.22,0,0,1-4.643-1.284v.127a10.259,10.259,0,0,0,8.223,10.059,10.347,10.347,0,0,1-4.61.177,10.288,10.288,0,0,0,9.594,7.121A20.564,20.564,0,0,1,2.438,38.433,21.763,21.763,0,0,1,0,38.294a29.165,29.165,0,0,0,15.748,4.6c18.868,0,29.173-15.621,29.173-29.146,0-.436,0-.875-.031-1.313a20.706,20.706,0,0,0,5.126-5.31l-.1-.042Z" transform="translate(0 -2.246)"/>
</svg>
